# xmcd
#
# Track frame offsets: 
#        150
#        17532
#        34752
#        51347
#        64445
#        78995
#        96600
#        107762
#        123870
#        145180
#        163475
#        178717
#        192997
#        208495
#        217130
#        238915
#        256125
#
# Disc length: 3578 seconds
#
# Revision: 5
# Processed by: cddbd v1.5.2PL0 Copyright (c) Steve Scherf et al.
# Submitted via: ExactAudioCopy v0.99pb3
#
DISCID=0b0df811
DTITLE=Suzanne Vega - Tried and True
DYEAR=1998
DGENRE=Pop
TTITLE0=Luka
TTITLE1=Tom's Dinner [DNA feat. Suzanne Vega]
TTITLE2=Marlene On the Wall
TTITLE3=Caramel
TTITLE4=99.9 Fº
TTITLE5=Small Blue Thing
TTITLE6=Blood Makes Noise
TTITLE7=Left of Center [feat. Joe Jackson]
TTITLE8=In Liverpool
TTITLE9=Gypsy
TTITLE10=Book of Dreams
TTITLE11=No Cheap Thrill
TTITLE12=World Before Columbus
TTITLE13=When Heroes Goes Down
TTITLE14=The Queen and the Soldier
TTITLE15=Book and a Cover
TTITLE16=Rosemary
EXTD=
EXTT0=
EXTT1=
EXTT2=
EXTT3=
EXTT4=
EXTT5=
EXTT6=
EXTT7=
EXTT8=
EXTT9=
EXTT10=
EXTT11=
EXTT12=
EXTT13=
EXTT14=
EXTT15=
EXTT16=
PLAYORDER=
